# xmcd
#
# Track frame offsets:
#	150
#	20578
#	38883
#	59254
#	82759
#	100010
#	120342
#	144517
#	166555
#	190761
#	209748
#	233507
#	247300
#	262000
#	277862
#	296622
#	315063
#	332470
#
# Disc length: 4703 seconds
#
# Revision: 1
# Processed by: cddbd v1.5PL3 Copyright (c) Steve Scherf et al.
# Submitted via: audiograbber 1.83.01
#
DISCID=eb125d12
DTITLE=REM - Millennium collection
DYEAR=2001
DGENRE=Rock
TTITLE0=Losing my religion
TTITLE1=What's the frequency, Kenneth
TTITLE2=Lotus
TTITLE3=Man on the moon
TTITLE4=Shiny happy people
TTITLE5=Drive
TTITLE6=The great beyond
TTITLE7=Bang and blame
TTITLE8=E-bow the letter
TTITLE9=Radion song
TTITLE10=Everybody hurts
TTITLE11=This friendly world
TTITLE12=The one i love
TTITLE13=Daysleeper
TTITLE14=The sidewinder sleeps tonight
TTITLE15=Bittersweet me
TTITLE16=Strange currencies
TTITLE17=The apologist
EXTD=
EXTT0=
EXTT1=
EXTT2=
EXTT3=
EXTT4=
EXTT5=
EXTT6=
EXTT7=
EXTT8=
EXTT9=
EXTT10=
EXTT11=
EXTT12=
EXTT13=
EXTT14=
EXTT15=
EXTT16=
EXTT17=
PLAYORDER=
